<svg id="Layer_1" xml:space="preserve" enable-background="new 0 0 100 100" viewBox="0 0 100 100" height="100px" width="100px" y="0px" x="0px" version="1.1" xmlns:xlink="http://www.w3.org/1999/xlink" xmlns="http://www.w3.org/2000/svg">
<path d="M42.055,27.155l-1.025,0.061c-10.616,2.085-13.808,5.456-17.502,9.358c-0.642,0.677-1.305,1.377-2.024,2.087 c-3.628,3.583-12.334,3.634-16.052,3.656c-1.378,0.008-1.789,0.016-2.064,0.127c-0.818,0.332-1.124,0.456,3.084,12.999 c1.973,5.882,4.068,11.802,4.089,11.86l0.113,0.319l0.316,0.122c0.188,0.071,2.606,0.977,5.955,0.977 c3.036-0.001,6.834-0.744,10.425-3.524c2.67-2.067,4.192-4.344,5.665-6.545c2.662-3.979,5.198-7.74,14.203-10.76l10.384,25.855 l0.047,0.048l2.849-0.703L42.055,27.155z M37.572,29.528l1.619,3.446l-8.918,4.192l-1.621-3.45 C30.744,32.081,33.379,30.674,37.572,29.528z M19.82,41.553l0.203,0.43l-8.255,3.878l-1.059-2.254 C13.714,43.378,17.131,42.841,19.82,41.553z M8.736,57.559c-0.893-2.627-1.759-5.227-2.483-7.479l4.811-2.26l3.328,7.082 L8.736,57.559z M14.004,66.98l4.966-2.335l1.069,2.274C17.693,67.367,15.553,67.232,14.004,66.98z M24.955,50.75l3.641,7.748 l-8.919,4.191l-0.666,0.313l-3.329-7.082l-0.174-0.358l0.658-0.342L24.955,50.75l-3.782-7.682l-0.379-0.641l0.873-0.404l8.253-3.878 l3.955,8.414L24.955,50.75z M37.637,51.108l-2.119-4.51l4.127-1.939l4.126-1.939l1.944,4.137 C42.139,48.151,39.586,49.592,37.637,51.108z"/>
<path d="M40.889,73.094l2.849,0.703l0.047-0.048l10.385-25.855c9.004,3.02,11.54,6.78,14.202,10.76 c1.472,2.201,2.995,4.478,5.665,6.545c3.59,2.78,7.389,3.523,10.425,3.524c3.349,0,5.767-0.905,5.954-0.977l0.316-0.122l0.112-0.319 c0.021-0.059,2.116-5.979,4.09-11.86c4.208-12.543,3.902-12.667,3.084-12.999c-0.275-0.112-0.686-0.119-2.064-0.127 c-3.718-0.022-12.424-0.073-16.053-3.656c-0.719-0.71-1.383-1.41-2.023-2.087c-3.695-3.903-6.888-7.273-17.503-9.358l-1.025-0.061 L40.889,73.094z M72.752,33.716l-1.621,3.45l-8.919-4.192l1.619-3.446C68.024,30.674,70.659,32.081,72.752,33.716z M90.694,43.608 l-1.06,2.254l-8.254-3.878l0.202-0.43C84.272,42.841,87.689,43.378,90.694,43.608z M87.013,54.901l3.328-7.082l4.811,2.26 c-0.726,2.252-1.591,4.852-2.483,7.479L87.013,54.901z M81.364,66.92l1.068-2.274l4.967,2.335 C85.851,67.232,83.711,67.367,81.364,66.92z M67.529,46.559l3.954-8.414l8.254,3.878l0.872,0.404l-0.379,0.641l-3.782,7.682 l8.789,4.47l0.658,0.342l-0.174,0.358l-3.328,7.082l-0.666-0.313l-8.919-4.191l3.64-7.748L67.529,46.559z M55.688,46.856 l1.944-4.137l4.126,1.939l4.128,1.939l-2.119,4.51C61.817,49.592,59.265,48.151,55.688,46.856z"/>
</svg>